<?xml version="1.0" encoding="UTF-8" standalone="no"?>
<!DOCTYPE svg PUBLIC "-//W3C//DTD SVG 1.1//EN"
 "http://www.w3.org/Graphics/SVG/1.1/DTD/svg11.dtd">
<!-- Generated by graphviz version 2.47.0 (20210316.0004)
 -->
<!-- Title: dependencies Pages: 1 -->
<svg width="504pt" height="211pt"
 viewBox="0.00 0.00 504.00 211.00" xmlns="http://www.w3.org/2000/svg" xmlns:xlink="http://www.w3.org/1999/xlink">
<g id="graph0" class="graph" transform="scale(1 1) rotate(0) translate(4 207)">
<title>dependencies</title>
<polygon fill="white" stroke="transparent" points="-4,4 -4,-207 500,-207 500,4 -4,4"/>
<text text-anchor="start" x="227.01" y="-42.4" font-family="Times-12" font-weight="bold" font-size="14.00">Legend</text>
<polygon fill="#ffffb3" stroke="transparent" points="14,-10 14,-30 34,-30 34,-10 14,-10"/>
<text text-anchor="start" x="37.63" y="-15.4" font-family="Times-12" font-size="14.00"> &#160;Declarations</text>
<polygon fill="#8dd3c7" stroke="transparent" points="127,-10 127,-30 147,-30 147,-10 127,-10"/>
<text text-anchor="start" x="150.73" y="-15.4" font-family="Times-12" font-size="14.00"> &#160;Module</text>
<polygon fill="#80b1d3" stroke="transparent" points="213,-10 213,-30 233,-30 233,-10 213,-10"/>
<text text-anchor="start" x="236.78" y="-15.4" font-family="Times-12" font-size="14.00"> &#160;Bootstrap</text>
<polygon fill="#fdb462" stroke="transparent" points="310,-10 310,-30 330,-30 330,-10 310,-10"/>
<text text-anchor="start" x="333.67" y="-15.4" font-family="Times-12" font-size="14.00"> &#160;Providers</text>
<polygon fill="#fb8072" stroke="transparent" points="406,-10 406,-30 426,-30 426,-10 406,-10"/>
<text text-anchor="start" x="429.73" y="-15.4" font-family="Times-12" font-size="14.00"> &#160;Exports</text>
<g id="clust1" class="cluster">
<title>cluster_CartModule</title>
<polygon fill="none" stroke="black" stroke-dasharray="1,5" points="46.5,-70 46.5,-195 449.5,-195 449.5,-70 46.5,-70"/>
</g>
<g id="clust2" class="cluster">
<title>cluster_CartModule_declarations</title>
<polygon fill="none" stroke="black" points="206.5,-78 206.5,-130 441.5,-130 441.5,-78 206.5,-78"/>
</g>
<g id="clust5" class="cluster">
<title>cluster_CartModule_imports</title>
<polygon fill="none" stroke="black" points="54.5,-78 54.5,-130 198.5,-130 198.5,-78 54.5,-78"/>
</g>
<!-- CartComponent -->
<g id="node1" class="node">
<title>CartComponent</title>
<polygon fill="#ffffb3" stroke="black" points="433.44,-122 327.56,-122 327.56,-86 433.44,-86 433.44,-122"/>
<text text-anchor="middle" x="380.5" y="-99.8" font-family="Times,serif" font-size="14.00">CartComponent</text>
</g>
<!-- CartModule -->
<g id="node3" class="node">
<title>CartModule</title>
<polygon fill="#8dd3c7" stroke="black" points="304.15,-187 301.15,-191 280.15,-191 277.15,-187 220.85,-187 220.85,-151 304.15,-151 304.15,-187"/>
<text text-anchor="middle" x="262.5" y="-164.8" font-family="Times,serif" font-size="14.00">CartModule</text>
</g>
<!-- CartComponent&#45;&gt;CartModule -->
<g id="edge1" class="edge">
<title>CartComponent&#45;&gt;CartModule</title>
<path fill="none" stroke="black" d="M380.5,-122.11C380.5,-141.34 380.5,-169 380.5,-169 380.5,-169 314.43,-169 314.43,-169"/>
<polygon fill="black" stroke="black" points="314.43,-165.5 304.43,-169 314.43,-172.5 314.43,-165.5"/>
</g>
<!-- FilterCartPipe -->
<g id="node2" class="node">
<title>FilterCartPipe</title>
<polygon fill="#ffffb3" stroke="black" points="310.32,-122 214.68,-122 214.68,-86 310.32,-86 310.32,-122"/>
<text text-anchor="middle" x="262.5" y="-99.8" font-family="Times,serif" font-size="14.00">FilterCartPipe</text>
</g>
<!-- FilterCartPipe&#45;&gt;CartModule -->
<g id="edge2" class="edge">
<title>FilterCartPipe&#45;&gt;CartModule</title>
<path fill="none" stroke="black" d="M262.5,-122.11C262.5,-122.11 262.5,-140.99 262.5,-140.99"/>
<polygon fill="black" stroke="black" points="259,-140.99 262.5,-150.99 266,-140.99 259,-140.99"/>
</g>
<!-- CartRoutingModule -->
<g id="node4" class="node">
<title>CartRoutingModule</title>
<polygon fill="#8dd3c7" stroke="black" points="190.77,-122 187.77,-126 166.77,-126 163.77,-122 62.23,-122 62.23,-86 190.77,-86 190.77,-122"/>
<text text-anchor="middle" x="126.5" y="-99.8" font-family="Times,serif" font-size="14.00">CartRoutingModule</text>
</g>
<!-- CartRoutingModule&#45;&gt;CartModule -->
<g id="edge3" class="edge">
<title>CartRoutingModule&#45;&gt;CartModule</title>
<path fill="none" stroke="black" d="M126.5,-122.11C126.5,-141.34 126.5,-169 126.5,-169 126.5,-169 210.59,-169 210.59,-169"/>
<polygon fill="black" stroke="black" points="210.59,-172.5 220.59,-169 210.59,-165.5 210.59,-172.5"/>
</g>
</g>
</svg>
