<?xml version="1.0" encoding="UTF-8" standalone="no"?>
<!DOCTYPE svg PUBLIC "-//W3C//DTD SVG 1.1//EN"
 "http://www.w3.org/Graphics/SVG/1.1/DTD/svg11.dtd">
<!-- Generated by graphviz version 2.47.0 (20210316.0004)
 -->
<!-- Title: dependencies Pages: 1 -->
<svg width="3071pt" height="284pt"
 viewBox="0.00 0.00 3071.00 284.00" xmlns="http://www.w3.org/2000/svg" xmlns:xlink="http://www.w3.org/1999/xlink">
<g id="graph0" class="graph" transform="scale(1 1) rotate(0) translate(4 280)">
<title>dependencies</title>
<polygon fill="white" stroke="transparent" points="-4,4 -4,-280 3067,-280 3067,4 -4,4"/>
<text text-anchor="start" x="1510.51" y="-42.4" font-family="Times-12" font-weight="bold" font-size="14.00">Legend</text>
<polygon fill="#ffffb3" stroke="transparent" points="1297.5,-10 1297.5,-30 1317.5,-30 1317.5,-10 1297.5,-10"/>
<text text-anchor="start" x="1321.13" y="-15.4" font-family="Times-12" font-size="14.00"> &#160;Declarations</text>
<polygon fill="#8dd3c7" stroke="transparent" points="1410.5,-10 1410.5,-30 1430.5,-30 1430.5,-10 1410.5,-10"/>
<text text-anchor="start" x="1434.23" y="-15.4" font-family="Times-12" font-size="14.00"> &#160;Module</text>
<polygon fill="#80b1d3" stroke="transparent" points="1496.5,-10 1496.5,-30 1516.5,-30 1516.5,-10 1496.5,-10"/>
<text text-anchor="start" x="1520.28" y="-15.4" font-family="Times-12" font-size="14.00"> &#160;Bootstrap</text>
<polygon fill="#fdb462" stroke="transparent" points="1593.5,-10 1593.5,-30 1613.5,-30 1613.5,-10 1593.5,-10"/>
<text text-anchor="start" x="1617.17" y="-15.4" font-family="Times-12" font-size="14.00"> &#160;Providers</text>
<polygon fill="#fb8072" stroke="transparent" points="1689.5,-10 1689.5,-30 1709.5,-30 1709.5,-10 1689.5,-10"/>
<text text-anchor="start" x="1713.23" y="-15.4" font-family="Times-12" font-size="14.00"> &#160;Exports</text>
<g id="clust1" class="cluster">
<title>cluster_AppModule</title>
<polygon fill="none" stroke="black" stroke-dasharray="1,5" points="8,-70 8,-268 3055,-268 3055,-70 8,-70"/>
</g>
<g id="clust21" class="cluster">
<title>cluster_AppModule_imports</title>
<polygon fill="none" stroke="black" points="2903,-78 2903,-130 3047,-130 3047,-78 2903,-78"/>
</g>
<g id="clust23" class="cluster">
<title>cluster_AppModule_bootstrap</title>
<polygon fill="none" stroke="black" points="1398,-208 1398,-260 1522,-260 1522,-208 1398,-208"/>
</g>
<g id="clust24" class="cluster">
<title>cluster_AppModule_providers</title>
<polygon fill="none" stroke="black" points="2653,-78 2653,-130 2895,-130 2895,-78 2653,-78"/>
</g>
<g id="clust2" class="cluster">
<title>cluster_AppModule_declarations</title>
<polygon fill="none" stroke="black" points="16,-78 16,-130 2645,-130 2645,-78 16,-78"/>
</g>
<!-- AllordersComponent -->
<g id="node1" class="node">
<title>AllordersComponent</title>
<polygon fill="#ffffb3" stroke="black" points="2637.2,-122 2502.8,-122 2502.8,-86 2637.2,-86 2637.2,-122"/>
<text text-anchor="middle" x="2570" y="-99.8" font-family="Times,serif" font-size="14.00">AllordersComponent</text>
</g>
<!-- AppModule -->
<g id="node19" class="node">
<title>AppModule</title>
<polygon fill="#8dd3c7" stroke="black" points="1501.66,-187 1498.66,-191 1477.66,-191 1474.66,-187 1418.34,-187 1418.34,-151 1501.66,-151 1501.66,-187"/>
<text text-anchor="middle" x="1460" y="-164.8" font-family="Times,serif" font-size="14.00">AppModule</text>
</g>
<!-- AllordersComponent&#45;&gt;AppModule -->
<g id="edge1" class="edge">
<title>AllordersComponent&#45;&gt;AppModule</title>
<path fill="none" stroke="black" d="M2570,-122.04C2570,-143.66 2570,-177 2570,-177 2570,-177 1511.82,-177 1511.82,-177"/>
<polygon fill="black" stroke="black" points="1511.82,-173.5 1501.82,-177 1511.82,-180.5 1511.82,-173.5"/>
</g>
<!-- AppComponent -->
<g id="node2" class="node">
<title>AppComponent</title>
<polygon fill="#ffffb3" stroke="black" points="2484.94,-122 2379.06,-122 2379.06,-86 2484.94,-86 2484.94,-122"/>
<text text-anchor="middle" x="2432" y="-99.8" font-family="Times,serif" font-size="14.00">AppComponent</text>
</g>
<!-- AppComponent&#45;&gt;AppModule -->
<g id="edge2" class="edge">
<title>AppComponent&#45;&gt;AppModule</title>
<path fill="none" stroke="black" d="M2432,-122.13C2432,-142.57 2432,-173 2432,-173 2432,-173 1511.77,-173 1511.77,-173"/>
<polygon fill="black" stroke="black" points="1511.77,-169.5 1501.77,-173 1511.77,-176.5 1511.77,-169.5"/>
</g>
<!-- BrandsComponent -->
<g id="node3" class="node">
<title>BrandsComponent</title>
<polygon fill="#ffffb3" stroke="black" points="2361.49,-122 2240.51,-122 2240.51,-86 2361.49,-86 2361.49,-122"/>
<text text-anchor="middle" x="2301" y="-99.8" font-family="Times,serif" font-size="14.00">BrandsComponent</text>
</g>
<!-- BrandsComponent&#45;&gt;AppModule -->
<g id="edge3" class="edge">
<title>BrandsComponent&#45;&gt;AppModule</title>
<path fill="none" stroke="black" d="M2301,-122.11C2301,-141.34 2301,-169 2301,-169 2301,-169 1511.71,-169 1511.71,-169"/>
<polygon fill="black" stroke="black" points="1511.71,-165.5 1501.71,-169 1511.71,-172.5 1511.71,-165.5"/>
</g>
<!-- CatigoryComponent -->
<g id="node4" class="node">
<title>CatigoryComponent</title>
<polygon fill="#ffffb3" stroke="black" points="2222.33,-122 2091.67,-122 2091.67,-86 2222.33,-86 2222.33,-122"/>
<text text-anchor="middle" x="2157" y="-99.8" font-family="Times,serif" font-size="14.00">CatigoryComponent</text>
</g>
<!-- CatigoryComponent&#45;&gt;AppModule -->
<g id="edge4" class="edge">
<title>CatigoryComponent&#45;&gt;AppModule</title>
<path fill="none" stroke="black" d="M2157,-122.27C2157,-140.56 2157,-166 2157,-166 2157,-166 1511.77,-166 1511.77,-166"/>
<polygon fill="black" stroke="black" points="1511.77,-162.5 1501.77,-166 1511.77,-169.5 1511.77,-162.5"/>
</g>
<!-- CheckOutComponent -->
<g id="node5" class="node">
<title>CheckOutComponent</title>
<polygon fill="#ffffb3" stroke="black" points="2074.1,-122 1935.9,-122 1935.9,-86 2074.1,-86 2074.1,-122"/>
<text text-anchor="middle" x="2005" y="-99.8" font-family="Times,serif" font-size="14.00">CheckOutComponent</text>
</g>
<!-- CheckOutComponent&#45;&gt;AppModule -->
<g id="edge5" class="edge">
<title>CheckOutComponent&#45;&gt;AppModule</title>
<path fill="none" stroke="black" d="M2005,-122.03C2005,-139.06 2005,-162 2005,-162 2005,-162 1511.86,-162 1511.86,-162"/>
<polygon fill="black" stroke="black" points="1511.86,-158.5 1501.86,-162 1511.86,-165.5 1511.86,-158.5"/>
</g>
<!-- FeaturedProductComponent -->
<g id="node6" class="node">
<title>FeaturedProductComponent</title>
<polygon fill="#ffffb3" stroke="black" points="1917.86,-122 1744.14,-122 1744.14,-86 1917.86,-86 1917.86,-122"/>
<text text-anchor="middle" x="1831" y="-99.8" font-family="Times,serif" font-size="14.00">FeaturedProductComponent</text>
</g>
<!-- FeaturedProductComponent&#45;&gt;AppModule -->
<g id="edge6" class="edge">
<title>FeaturedProductComponent&#45;&gt;AppModule</title>
<path fill="none" stroke="black" d="M1831,-122.01C1831,-138.05 1831,-159 1831,-159 1831,-159 1511.84,-159 1511.84,-159"/>
<polygon fill="black" stroke="black" points="1511.84,-155.5 1501.84,-159 1511.84,-162.5 1511.84,-155.5"/>
</g>
<!-- HeaderComponent -->
<g id="node7" class="node">
<title>HeaderComponent</title>
<polygon fill="#ffffb3" stroke="black" points="1725.74,-122 1604.26,-122 1604.26,-86 1725.74,-86 1725.74,-122"/>
<text text-anchor="middle" x="1665" y="-99.8" font-family="Times,serif" font-size="14.00">HeaderComponent</text>
</g>
<!-- HeaderComponent&#45;&gt;AppModule -->
<g id="edge7" class="edge">
<title>HeaderComponent&#45;&gt;AppModule</title>
<path fill="none" stroke="black" d="M1665,-122.12C1665,-136.78 1665,-155 1665,-155 1665,-155 1511.98,-155 1511.98,-155"/>
<polygon fill="black" stroke="black" points="1511.98,-151.5 1501.98,-155 1511.98,-158.5 1511.98,-151.5"/>
</g>
<!-- HomeComponent -->
<g id="node8" class="node">
<title>HomeComponent</title>
<polygon fill="#ffffb3" stroke="black" points="1585.55,-122 1470.45,-122 1470.45,-86 1585.55,-86 1585.55,-122"/>
<text text-anchor="middle" x="1528" y="-99.8" font-family="Times,serif" font-size="14.00">HomeComponent</text>
</g>
<!-- HomeComponent&#45;&gt;AppModule -->
<g id="edge8" class="edge">
<title>HomeComponent&#45;&gt;AppModule</title>
<path fill="none" stroke="black" d="M1486.03,-122.11C1486.03,-122.11 1486.03,-140.99 1486.03,-140.99"/>
<polygon fill="black" stroke="black" points="1482.53,-140.99 1486.03,-150.99 1489.53,-140.99 1482.53,-140.99"/>
</g>
<!-- LoaderComponent -->
<g id="node9" class="node">
<title>LoaderComponent</title>
<polygon fill="#ffffb3" stroke="black" points="1452.47,-122 1331.53,-122 1331.53,-86 1452.47,-86 1452.47,-122"/>
<text text-anchor="middle" x="1392" y="-99.8" font-family="Times,serif" font-size="14.00">LoaderComponent</text>
</g>
<!-- LoaderComponent&#45;&gt;AppModule -->
<g id="edge9" class="edge">
<title>LoaderComponent&#45;&gt;AppModule</title>
<path fill="none" stroke="black" d="M1435.33,-122.11C1435.33,-122.11 1435.33,-140.99 1435.33,-140.99"/>
<polygon fill="black" stroke="black" points="1431.83,-140.99 1435.33,-150.99 1438.83,-140.99 1431.83,-140.99"/>
</g>
<!-- LogInComponent -->
<g id="node10" class="node">
<title>LogInComponent</title>
<polygon fill="#ffffb3" stroke="black" points="1313.55,-122 1198.45,-122 1198.45,-86 1313.55,-86 1313.55,-122"/>
<text text-anchor="middle" x="1256" y="-99.8" font-family="Times,serif" font-size="14.00">LogInComponent</text>
</g>
<!-- LogInComponent&#45;&gt;AppModule -->
<g id="edge10" class="edge">
<title>LogInComponent&#45;&gt;AppModule</title>
<path fill="none" stroke="black" d="M1256,-122.12C1256,-136.78 1256,-155 1256,-155 1256,-155 1408.23,-155 1408.23,-155"/>
<polygon fill="black" stroke="black" points="1408.23,-158.5 1418.23,-155 1408.23,-151.5 1408.23,-158.5"/>
</g>
<!-- NavbarComponent -->
<g id="node11" class="node">
<title>NavbarComponent</title>
<polygon fill="#ffffb3" stroke="black" points="1180.03,-122 1057.97,-122 1057.97,-86 1180.03,-86 1180.03,-122"/>
<text text-anchor="middle" x="1119" y="-99.8" font-family="Times,serif" font-size="14.00">NavbarComponent</text>
</g>
<!-- NavbarComponent&#45;&gt;AppModule -->
<g id="edge11" class="edge">
<title>NavbarComponent&#45;&gt;AppModule</title>
<path fill="none" stroke="black" d="M1119,-122.01C1119,-138.05 1119,-159 1119,-159 1119,-159 1408.19,-159 1408.19,-159"/>
<polygon fill="black" stroke="black" points="1408.19,-162.5 1418.19,-159 1408.19,-155.5 1408.19,-162.5"/>
</g>
<!-- NotfoundComponent -->
<g id="node12" class="node">
<title>NotfoundComponent</title>
<polygon fill="#ffffb3" stroke="black" points="1039.49,-122 904.51,-122 904.51,-86 1039.49,-86 1039.49,-122"/>
<text text-anchor="middle" x="972" y="-99.8" font-family="Times,serif" font-size="14.00">NotfoundComponent</text>
</g>
<!-- NotfoundComponent&#45;&gt;AppModule -->
<g id="edge12" class="edge">
<title>NotfoundComponent&#45;&gt;AppModule</title>
<path fill="none" stroke="black" d="M972,-122.03C972,-139.06 972,-162 972,-162 972,-162 1407.97,-162 1407.97,-162"/>
<polygon fill="black" stroke="black" points="1407.97,-165.5 1417.97,-162 1407.97,-158.5 1407.97,-165.5"/>
</g>
<!-- ProductCardComponent -->
<g id="node13" class="node">
<title>ProductCardComponent</title>
<polygon fill="#ffffb3" stroke="black" points="886.09,-122 733.91,-122 733.91,-86 886.09,-86 886.09,-122"/>
<text text-anchor="middle" x="810" y="-99.8" font-family="Times,serif" font-size="14.00">ProductCardComponent</text>
</g>
<!-- ProductCardComponent&#45;&gt;AppModule -->
<g id="edge13" class="edge">
<title>ProductCardComponent&#45;&gt;AppModule</title>
<path fill="none" stroke="black" d="M810,-122.27C810,-140.56 810,-166 810,-166 810,-166 1407.85,-166 1407.85,-166"/>
<polygon fill="black" stroke="black" points="1407.85,-169.5 1417.85,-166 1407.85,-162.5 1407.85,-169.5"/>
</g>
<!-- ProductDetailsComponent -->
<g id="node14" class="node">
<title>ProductDetailsComponent</title>
<polygon fill="#ffffb3" stroke="black" points="716.03,-122 551.97,-122 551.97,-86 716.03,-86 716.03,-122"/>
<text text-anchor="middle" x="634" y="-99.8" font-family="Times,serif" font-size="14.00">ProductDetailsComponent</text>
</g>
<!-- ProductDetailsComponent&#45;&gt;AppModule -->
<g id="edge14" class="edge">
<title>ProductDetailsComponent&#45;&gt;AppModule</title>
<path fill="none" stroke="black" d="M634,-122.11C634,-141.34 634,-169 634,-169 634,-169 1408.19,-169 1408.19,-169"/>
<polygon fill="black" stroke="black" points="1408.19,-172.5 1418.19,-169 1408.19,-165.5 1408.19,-172.5"/>
</g>
<!-- ProductsComponent -->
<g id="node15" class="node">
<title>ProductsComponent</title>
<polygon fill="#ffffb3" stroke="black" points="534.33,-122 403.67,-122 403.67,-86 534.33,-86 534.33,-122"/>
<text text-anchor="middle" x="469" y="-99.8" font-family="Times,serif" font-size="14.00">ProductsComponent</text>
</g>
<!-- ProductsComponent&#45;&gt;AppModule -->
<g id="edge15" class="edge">
<title>ProductsComponent&#45;&gt;AppModule</title>
<path fill="none" stroke="black" d="M469,-122.13C469,-142.57 469,-173 469,-173 469,-173 1408.05,-173 1408.05,-173"/>
<polygon fill="black" stroke="black" points="1408.05,-176.5 1418.05,-173 1408.05,-169.5 1408.05,-176.5"/>
</g>
<!-- ProfileComponent -->
<g id="node16" class="node">
<title>ProfileComponent</title>
<polygon fill="#ffffb3" stroke="black" points="385.93,-122 266.07,-122 266.07,-86 385.93,-86 385.93,-122"/>
<text text-anchor="middle" x="326" y="-99.8" font-family="Times,serif" font-size="14.00">ProfileComponent</text>
</g>
<!-- ProfileComponent&#45;&gt;AppModule -->
<g id="edge16" class="edge">
<title>ProfileComponent&#45;&gt;AppModule</title>
<path fill="none" stroke="black" d="M326,-122.04C326,-143.66 326,-177 326,-177 326,-177 1408.3,-177 1408.3,-177"/>
<polygon fill="black" stroke="black" points="1408.3,-180.5 1418.3,-177 1408.3,-173.5 1408.3,-180.5"/>
</g>
<!-- RegisterComponent -->
<g id="node17" class="node">
<title>RegisterComponent</title>
<polygon fill="#ffffb3" stroke="black" points="247.98,-122 120.02,-122 120.02,-86 247.98,-86 247.98,-122"/>
<text text-anchor="middle" x="184" y="-99.8" font-family="Times,serif" font-size="14.00">RegisterComponent</text>
</g>
<!-- RegisterComponent&#45;&gt;AppModule -->
<g id="edge17" class="edge">
<title>RegisterComponent&#45;&gt;AppModule</title>
<path fill="none" stroke="black" d="M184,-122.01C184,-144.49 184,-180 184,-180 184,-180 1408.27,-180 1408.27,-180"/>
<polygon fill="black" stroke="black" points="1408.27,-183.5 1418.27,-180 1408.27,-176.5 1408.27,-183.5"/>
</g>
<!-- SearchPipe -->
<g id="node18" class="node">
<title>SearchPipe</title>
<polygon fill="#ffffb3" stroke="black" points="102.47,-122 23.53,-122 23.53,-86 102.47,-86 102.47,-122"/>
<text text-anchor="middle" x="63" y="-99.8" font-family="Times,serif" font-size="14.00">SearchPipe</text>
</g>
<!-- SearchPipe&#45;&gt;AppModule -->
<g id="edge18" class="edge">
<title>SearchPipe&#45;&gt;AppModule</title>
<path fill="none" stroke="black" d="M63,-122.15C63,-145.76 63,-184 63,-184 63,-184 1408.19,-184 1408.19,-184"/>
<polygon fill="black" stroke="black" points="1408.19,-187.5 1418.19,-184 1408.19,-180.5 1408.19,-187.5"/>
</g>
<!-- AppComponent  -->
<g id="node21" class="node">
<title>AppComponent </title>
<polygon fill="#80b1d3" stroke="black" points="1514.44,-252 1405.56,-252 1405.56,-216 1514.44,-216 1514.44,-252"/>
<text text-anchor="middle" x="1460" y="-229.8" font-family="Times,serif" font-size="14.00">AppComponent </text>
</g>
<!-- AppModule&#45;&gt;AppComponent  -->
<g id="edge20" class="edge">
<title>AppModule&#45;&gt;AppComponent </title>
<path fill="none" stroke="black" stroke-dasharray="1,5" d="M1460,-187.11C1460,-187.11 1460,-205.99 1460,-205.99"/>
<polygon fill="black" stroke="black" points="1456.5,-205.99 1460,-215.99 1463.5,-205.99 1456.5,-205.99"/>
</g>
<!-- AppRoutingModule -->
<g id="node20" class="node">
<title>AppRoutingModule</title>
<polygon fill="#8dd3c7" stroke="black" points="3039.27,-122 3036.27,-126 3015.27,-126 3012.27,-122 2910.73,-122 2910.73,-86 3039.27,-86 3039.27,-122"/>
<text text-anchor="middle" x="2975" y="-99.8" font-family="Times,serif" font-size="14.00">AppRoutingModule</text>
</g>
<!-- AppRoutingModule&#45;&gt;AppModule -->
<g id="edge19" class="edge">
<title>AppRoutingModule&#45;&gt;AppModule</title>
<path fill="none" stroke="black" d="M2975,-122.15C2975,-145.76 2975,-184 2975,-184 2975,-184 1511.7,-184 1511.7,-184"/>
<polygon fill="black" stroke="black" points="1511.7,-180.5 1501.7,-184 1511.7,-187.5 1511.7,-180.5"/>
</g>
<!-- HttpInterceptorInterceptor -->
<g id="node22" class="node">
<title>HttpInterceptorInterceptor</title>
<ellipse fill="#fdb462" stroke="black" cx="2774" cy="-104" rx="112.84" ry="18"/>
<text text-anchor="middle" x="2774" y="-99.8" font-family="Times,serif" font-size="14.00">HttpInterceptorInterceptor</text>
</g>
<!-- HttpInterceptorInterceptor&#45;&gt;AppModule -->
<g id="edge21" class="edge">
<title>HttpInterceptorInterceptor&#45;&gt;AppModule</title>
<path fill="none" stroke="black" d="M2774,-122.01C2774,-144.49 2774,-180 2774,-180 2774,-180 1511.86,-180 1511.86,-180"/>
<polygon fill="black" stroke="black" points="1511.86,-176.5 1501.86,-180 1511.86,-183.5 1511.86,-176.5"/>
</g>
</g>
</svg>
